<?xml version="1.0" encoding="UTF-8"?>
<svg id="_Слой_1" data-name="Слой_1" xmlns="http://www.w3.org/2000/svg" version="1.1" viewBox="0 0 562.33 815.3">
  <!-- Generator: Adobe Illustrator 30.0.0, SVG Export Plug-In . SVG Version: 2.1.1 Build 123)  -->
  <defs>
    <style>
      .st0 {
        fill: #0a53d3;
      }

      .st1 {
        fill: #c4f5fd;
      }

      .st2 {
        fill: #2ba4ff;
      }
    </style>
  </defs>
  <g id="Objects">
    <g>
      <path class="st0" d="M535.37,675.72c-32.44,75.27-95.91,139.58-227.83,139.58-184.12,0-257.53-96.7-286.36-181.68-32.88-96.9-25.95-159.19,10.18-226.94-1.82,26.27-3.28,54.25,9.52,77.27,12.8,23.02,45.66,36.8,66.37,20.53,15.59-12.24,17.61-35.71,11.76-54.65-5.87-18.94-17.88-35.3-26.39-53.19-22.92-48.18-18.32-108.36,11.66-152.5,4.09,26.63,8.88,54.78,26.47,75.17,17.58,20.4,52.69,28.11,71.1,8.47,17.56-18.74,10.79-48.44,6.49-73.76-15.94-93.91,23.37-194.97,97.94-254.02-28.4,26.06-23.48,77.79-.19,110.68,25.28,35.71,67.59,55.82,95.58,89.45,97.94,117.71-54.9,246.62,27.69,286.5,45.45,24.72,86.98-38.87,75.47-99.27,67.2,83.41,72.93,190,30.54,288.36Z"/>
      <path class="st2" d="M451.05,683.68c-6.98,44.28-34.87,81.62-68.74,103.61-33.89,21.97-60.47,26.37-92.52,26.37-62.87,0-102.73-32.44-135.11-83.4-32.36-50.94-41.73-120.46-24.28-180.42,9.72,20.68,22.34,41.46,41.32,49.89,18.98,8.44,45.05-1.77,49.06-24.87,4.38-25.23-17.5-45.38-25.59-69.35-7.93-23.53-.82-52.72,16.57-67.96,1.42,18.16,5.54,37.52,17.59,49.23,12.06,11.71,33.91,10.5,40.43-6.08,4.69-11.92.04-25.63-1.59-38.58-4.04-32.37,14.22-66.57,41.02-76.8-16.81,9.63-13.59,40.1-.93,56.13,12.66,16.02,31.14,24.71,43.56,40.99,14.09,18.45,18.55,46.07,11.17,69.17-5.36,16.79-16.5,31.86-16.22,49.76.32,20.21,18.36,37.44,35.53,33.96,17.17-3.5,29.05-26.83,23.42-45.96,34.84,19.87,52.3,70.02,45.32,114.3Z"/>
      <path class="st1" d="M353.89,781.2c-.49.67-1,1.33-1.51,1.98-30.08,38.31-87.64,39.01-120.41,2.97-7.15-7.86-13.04-16.84-17.27-26.59-12.59-29.12-9.93-64.36,6.89-91.26,8.86-14.14,21.14-25.79,31.47-38.89s19.02-28.7,18.65-45.39c18.37,8.78,30.5,29.23,29.4,49.57-.59,10.91-4.6,21.3-6.87,31.98-2.27,10.68-2.58,22.62,3.48,31.69,6.96,10.42,21.22,14.4,33.38,11.38,12.16-3.03,22.19-11.95,29.04-22.44,16.16,29.36,13.6,68.02-6.27,94.99Z"/>
    </g>
  </g>
</svg>